<?xml version="1.0" encoding="utf-8"?>
<!-- Generator: Adobe Illustrator 21.0.0, SVG Export Plug-In . SVG Version: 6.00 Build 0)  -->
<svg version="1.1" id="Layer_1" xmlns="http://www.w3.org/2000/svg" xmlns:xlink="http://www.w3.org/1999/xlink" x="0px" y="0px"
	 viewBox="0 0 180 50" style="enable-background:new 0 0 180 50;" xml:space="preserve">
<style type="text/css">
	.st0{fill:#E31E26;}
</style>
<g>
	<g>
		<g>
			<g>
				<path class="st0" d="M172.5,35.7c-2.1,6-7.9,9.9-17.4,9.9c-7.9,0-15.5-4.6-13.6-15.1c1.6-8.9,9.7-14.8,19-14.8
					c10.4,0,15,7.2,13.3,15.5l-0.4,1.9h-19.6c-0.1,0.2-0.3,1.1-0.3,2.1c0,2.5,1.3,3.4,3,3.4s3.3-1,4.1-2.9
					C160.6,35.7,172.5,35.7,172.5,35.7z M162.4,27.2l0.1-0.7c0.4-2.2-0.6-3.8-2.9-3.8c-2.1,0-3.9,1.5-4.5,4.5H162.4"/>
				<path class="st0" d="M139.6,16.2c-3,0-5.4,1.7-7,4h-0.2l0.4-3.6h-12.6l-0.8,3.7l7-0.7l-0.2,0.7l-7.1,1.1l-5,23.4h13.6
					c0,0,1.4-6.7,2.3-10.7c1.4-6.3,4.8-7.7,7.1-7.7c1.9,0,3.2,0.9,3.5,1.1l2.2-10.5C142.6,16.9,141.4,16.2,139.6,16.2"/>
				<path class="st0" d="M15.9,28.2c-5.5-1.7-9.6-5-9.6-11.1c0-8.9,8.9-14,20.8-14.1c10.1,0,16.8,4.2,15.6,12.6H28.3
					c0.5-2.3-0.8-3.6-3.3-3.6c-1.9,0-3.4,1-3.6,2.2c-0.3,1.7,0.7,2.7,3.3,3.4c2.2,0.6,3.7,1,5.8,1.6c6.1,1.7,9,5.4,9.7,9.2
					l-18.1,1.9L15.9,28.2z M16.5,37.9l1.2-5.7H2.2c-1.1,9.7,6.6,13.6,16.3,13.6c9.4,0,19.3-3.1,21.5-11.7L16.5,37.9"/>
				<path class="st0" d="M96.5,18.6c1.1-0.9,3.7-2.9,7.8-2.9c4.1,0,7.3,1.8,8.8,5.2l-31.6,3.3l4.2-20h13.6l-3.1,14.4H96.5z
					 M95.8,25.1c-0.9,1.2-1.6,2.9-2.2,5.5c-1.2,5.6,0.1,7,1.8,7c2.2,0,4.1-2.1,5-7c0.6-3.1,0.5-5.3-0.3-6.2l13.6-2.2
					c0.7,2.2,0.8,4.9,0.1,8.1c-2,10-8.1,15.3-15,15.3c-3.1,0-6.5-0.8-7.9-4.1h-0.3l-1.1,3.3H77.2l3.7-17.2L95.8,25.1"/>
				<path class="st0" d="M61.8,34.8c-0.4,2.1-1.9,3.8-3.9,3.8c-1.9,0-2.8-1.6-2.4-3.3c0.3-1.4,1.8-2.9,4.6-2.9h2.2L61.8,34.8z
					 M58.3,25.1c0.4-1.7,1.7-3.1,3.4-3.1s2.4,1.5,2.1,3l-0.2,1l12.7-1.3c-1-6.5-7-9.3-14.1-9.3c-10.5,0-15.6,5.2-16.5,9.9L45.6,26
					h12.6L58.3,25.1z M42.6,33.7C42.2,34.8,42,36,42,37.3c0,4.4,3.3,8.3,8.9,8.3c5.1,0,8-2.1,9.3-3.5h0.2l-0.3,2.7H73l3.1-14.7
					c0.1-0.6,0.2-1.2,0.3-1.8L42.6,33.7"/>
			</g>
		</g>
	</g>
	<g>
		<path class="st0" d="M175.2,39.6c1.5,0,2.8,1.3,2.8,2.8c0,1.6-1.2,2.8-2.8,2.8c-1.5,0-2.8-1.2-2.8-2.8S173.7,39.6,175.2,39.6
			L175.2,39.6z M175.2,40c-1.2,0-2.3,1.1-2.3,2.4c0,1.3,1,2.4,2.3,2.4s2.3-1.1,2.3-2.4S176.5,40,175.2,40L175.2,40z M174.7,44.1
			h-0.5V41c0.3,0,0.5-0.1,0.9-0.1c0.5,0,0.8,0.1,1,0.2c0.2,0.1,0.3,0.4,0.3,0.7c0,0.4-0.3,0.7-0.6,0.8l0,0c0.3,0.1,0.5,0.3,0.5,0.8
			c0.1,0.5,0.2,0.7,0.2,0.8H176c-0.1-0.1-0.2-0.4-0.2-0.8c-0.1-0.4-0.3-0.6-0.7-0.6h-0.3L174.7,44.1L174.7,44.1z M174.7,42.3h0.4
			c0.4,0,0.8-0.2,0.8-0.5s-0.2-0.6-0.8-0.6c-0.2,0-0.3,0-0.4,0V42.3z"/>
	</g>
</g>
</svg>
